<?xml version="1.0" encoding="UTF-8" standalone="no"?>
<svg
   xmlns:dc="http://purl.org/dc/elements/1.1/"
   xmlns:cc="http://creativecommons.org/ns#"
   xmlns:rdf="http://www.w3.org/1999/02/22-rdf-syntax-ns#"
   xmlns:svg="http://www.w3.org/2000/svg"
   xmlns="http://www.w3.org/2000/svg"
   xmlns:sodipodi="http://sodipodi.sourceforge.net/DTD/sodipodi-0.dtd"
   xmlns:inkscape="http://www.inkscape.org/namespaces/inkscape"
   width="120mm"
   height="120mm"
   viewBox="-60 -60 120 120"
   sodipodi:docname="bitamodern.svg"
   version="1.1"
   id="svg2584"
   inkscape:version="1.0.1 (3bc2e813f5, 2020-09-07)">
  <defs
     id="defs2586" />
  <sodipodi:namedview
     pagecolor="#ffffff"
     bordercolor="#666666"
     borderopacity="1.0"
     inkscape:pageopacity="0.0"
     inkscape:pageshadow="2"
     inkscape:zoom="1"
     inkscape:cx="226.77165"
     inkscape:cy="226.77165"
     inkscape:document-units="mm"
     inkscape:current-layer="Template"
     showgrid="false"
     units="mm"
     showguides="true"
     inkscape:guide-bbox="true"
     inkscape:snap-global="true"
     inkscape:snap-bbox="true"
     inkscape:snap-bbox-midpoints="true"
     inkscape:window-width="1920"
     inkscape:window-height="1001"
     inkscape:window-x="-9"
     inkscape:window-y="-9"
     inkscape:window-maximized="1"
     inkscape:bbox-paths="true"
     inkscape:bbox-nodes="true"
     inkscape:snap-bbox-edge-midpoints="true"
     inkscape:snap-grids="true"
     id="namedview2574"
     inkscape:document-rotation="0">
    <sodipodi:guide
       orientation="1,0"
       position="226.771653543,226.771653543"
       id="guide2827" />
    <sodipodi:guide
       orientation="0,1"
       position="226.771653543,226.771653543"
       id="guide2829" />
    <inkscape:grid
       type="xygrid"
       id="grid3072"
       empspacing="10"
       visible="true"
       enabled="true"
       snapvisiblegridlinesonly="true"
       units="mm"
       dotted="false"
       spacingx="0.1mm"
       spacingy="0.1mm" />
  </sodipodi:namedview>
  <metadata
     id="metadata2822">
    <rdf:RDF>
      <cc:Work
         rdf:about="">
        <dc:format>image/svg+xml</dc:format>
        <dc:type
           rdf:resource="http://purl.org/dc/dcmitype/StillImage" />
        <dc:title></dc:title>
      </cc:Work>
    </rdf:RDF>
  </metadata>
  <g
     inkscape:label="Layer 1"
     inkscape:groupmode="layer"
     id="Template"
     style="fill:none;stroke:black;stroke-width:0.05">
    <circle
       cx="0"
       cy="0"
       r="60"
       id="circle2577"
       style="fill:#009dff;fill-opacity:1" />
    <circle
       cx="-29.308338"
       cy="30.956253"
       r="11.865889"
       id="circle2577-0"
       style="fill:#ffffff;fill-opacity:1;stroke:#000000;stroke-width:0.00988822" />
    <path
       style="fill:#ffffff;fill-opacity:1;stroke-width:0.0132292"
       id="path3256"
       d="m -47.822619,12.424178 c 0.820788,-1.744009 1.718429,-3.4364745 2.778688,-5.0467657 0.666932,-0.9152916 1.462964,-1.6839776 2.414207,-2.2996762 0.379092,-0.2453693 1.558543,-0.912929 1.171838,-0.6797411 -5.202385,3.1371064 -6.683623,3.6857437 -3.341044,2.2615313 2.869103,-1.0777802 5.881258,-1.7284541 8.930591,-2.0135267 0.651583,-0.060915 1.30586,-0.088384 1.95879,-0.1325748 3.468015,-0.1206712 6.919328,0.2944707 10.294384,1.0657364 2.567493,0.6030965 4.807953,1.996477 6.99375,3.4144849 2.782385,1.7396749 5.227431,3.9126349 7.4077169,6.3512509 1.6970613,1.959909 2.9574013,4.21548 3.9961026,6.576923 0.9917932,2.310019 1.7723431,4.703331 2.2906831,7.162347 0.398055,2.108407 0.5632688,4.243171 0.6582753,6.383182 0.1473015,2.508707 0.2835275,5.01796 0.4175496,7.527438 0.04073,1.725885 0.1497012,3.461975 0.030509,5.186749 -0.1254892,1.107879 -0.3909801,1.963663 -0.9687428,2.91271 -0.5980959,0.95799 -1.4319038,1.742752 -2.2316043,2.531137 -0.3528536,0.464412 -0.857078,0.75875 -1.2716139,1.160883 0,0 7.21240134,-2.949618 7.21240134,-2.949618 v 0 C 1.3452855,51.471978 1.743277,51.084136 2.1144133,50.663536 2.9181937,49.822958 3.7216698,48.967594 4.2642376,47.926964 4.7437631,46.910527 5.0134158,45.845262 5.0407658,44.715909 5.0456606,42.997025 4.863024,41.2852 4.7766535,39.569687 4.622195,37.062326 4.4539782,34.556698 4.3798896,32.045011 4.2957494,29.859362 4.1686806,27.667554 3.6826437,25.527387 3.0750202,23.051665 2.2188073,20.644139 1.2227093,18.298499 0.16055276,15.856133 -1.0687278,13.480212 -2.8908101,11.505812 -3.705097,10.64699 -4.0535427,10.250369 -4.9414605,9.438064 -6.6766218,7.8506725 -8.5854,6.4640998 -10.465857,5.0577971 c -2.198389,-1.5468997 -4.395269,-3.1393474 -7.086711,-3.6867465 -1.155745,-0.2425515 -1.813708,-0.39824818 -3.000703,-0.57117985 -2.509187,-0.3655642 -5.050724,-0.51357741 -7.584364,-0.53038903 -0.65523,0.0303451 -1.311468,0.043688 -1.965687,0.0910378 -3.05562,0.22114933 -6.07138,0.81661528 -8.974821,1.79669018 -4.200492,1.6099763 -1.615247,0.534207 -9.269595,4.9083912 -1.445526,0.8260662 -2.660645,1.9329109 -3.564717,3.3335571 -1.060222,1.716047 -1.976858,3.510587 -3.015106,5.23952 0,0 7.104942,-3.2145 7.104942,-3.2145 z" />
    <path
       style="fill:#ffffff;fill-opacity:1;stroke-width:0.0132292"
       id="path3258"
       d="m -48.740755,12.363988 c 0.47757,-1.727182 0.949612,-3.4522463 1.527746,-5.1492944 0.554534,-2.031791 1.211241,-4.0325966 1.871876,-6.0317141 0.766472,-2.5498187 1.807074,-5.002522 2.990689,-7.3835577 1.294207,-2.6615231 2.939789,-5.1044318 4.774991,-7.4167628 1.224871,-1.324515 2.282609,-2.901617 3.780814,-3.949763 0.220264,-0.154099 0.460591,-0.277324 0.690887,-0.415984 -10.791552,6.552952 -6.784368,3.476379 -4.251283,2.779165 0.92851,-0.255566 1.877836,-0.340326 2.832794,-0.424347 1.559255,-0.08875 3.122429,-0.07441 4.683666,-0.07514 2.132717,-0.05241 4.224335,0.345922 6.288601,0.834488 2.114354,0.579803 4.052882,1.602687 5.945365,2.683647 2.192377,1.298967 4.289171,2.745669 6.314614,4.2898964 1.4108725,1.1365441 2.8154289,2.3086271 3.7082945,3.9070782 0.5826522,1.4269958 0.9085527,2.9295116 1.1234023,4.45040272 0.1724131,1.62128988 0.2673218,3.25196988 0.082272,4.87440278 -0.2372942,1.3615617 -1.0292847,2.4635486 -1.7817862,3.5829028 -0.4546653,0.4844045 -0.7843652,1.0602807 -1.155827,1.6048701 -0.2571194,0.376952 -0.5548365,0.720521 -0.8133106,1.096618 -0.321797,0.589585 -0.618231,1.210787 -1.028089,1.74533 -0.508505,0.644599 -0.04013,1.253386 0.728367,1.27023 0.4763181,0.01045 1.202102,-0.339897 1.5980536,-0.498372 0.307676,-0.157649 0.6233583,-0.300561 0.9230254,-0.472951 2.461313,-1.415911 4.92075,-2.835538 7.35872402,-4.2912701 C 0.03182768,9.0283197 0.6728099,8.4690382 1.1821302,8.0357036 1.7690289,7.5363608 2.3484188,7.0282602 2.9321875,6.5252582 4.1337398,5.5355393 5.2778854,4.4729991 6.5932852,3.6307404 6.9225433,3.4199151 7.9398239,2.8353976 7.6036046,3.0349331 5.8215115,4.0925415 4.0383152,5.1482872 2.2556691,6.2049642 3.1753872,5.7877798 4.1430796,5.4977938 5.1284011,5.2852223 5.2901674,5.2503238 6.1950344,5.0787759 6.4101221,5.0712591 c 0.1964637,-0.00685 0.392176,0.027834 0.5882667,0.041749 0.249047,0.1108048 0.5090795,0.1996387 0.747141,0.3324119 1.9914129,1.1106494 3.6133612,2.8940336 5.1345202,4.5532727 1.769512,2.0031123 3.366928,4.1509443 4.888108,6.3462533 1.582841,2.338236 2.966318,4.806092 4.187822,7.350003 1.01667,2.221733 1.602952,4.598895 2.204019,6.956467 0.584237,2.483789 0.979628,5.00294 1.294294,7.53318 0.217279,1.886873 0.293127,3.786338 0.294058,5.684596 -0.09207,0.856922 -0.12255,2.05681 -0.647083,2.772342 -0.198179,0.16642 -0.434584,0.234653 -0.666221,0.330207 -0.08105,0.03344 -0.311275,0.161298 -0.235403,0.117354 6.364735,-3.68645 8.726384,-4.807545 6.214967,-3.60675 -1.407546,0.655984 -2.801887,1.343753 -4.220051,1.982994 -2.432833,1.064495 -4.841036,2.19637 -7.337615,3.106182 -1.724308,0.545981 -3.520932,0.833125 -5.308634,1.08327 -2.115225,0.263178 -4.2497221,0.306258 -6.378541,0.335463 -1.8067126,0.0204 -3.613396,-0.02193 -5.4195106,-0.06411 -0.5476214,-0.01413 -1.09522156,-0.02796 -1.64299901,-0.03356 0,0 -6.27189229,4.646522 -6.27189229,4.646522 v 0 c 0.5559584,-0.114866 1.1222302,-0.06574 1.6878961,-0.09058 1.8741337,-0.0344 3.74840764,-0.07185 5.6229117,-0.07398 2.1090784,-0.0071 4.2244433,0.0338 6.325698,-0.182316 1.8252863,-0.225272 3.6527791,-0.514178 5.4321101,-0.983335 2.604955,-0.865362 5.038735,-2.163506 7.568515,-3.219466 0.833355,-0.341318 1.68266,-0.646189 2.499497,-1.025342 0.45447,-0.210953 0.82395,-0.4909 1.330367,-0.593535 2.600143,-1.352513 0.622801,-0.319963 7.207221,-4.093353 0.341313,-0.195598 0.574646,-0.507335 0.699471,-0.877167 0.269666,-0.980456 0.367591,-2.011265 0.351859,-3.025693 -0.104002,-1.890501 -0.253661,-3.778314 -0.5261,-5.653236 -0.362842,-2.552853 -0.720826,-5.110644 -1.307005,-7.624043 -0.605118,-2.404761 -1.256927,-4.814585 -2.33385,-7.059072 -1.265483,-2.560251 -2.708055,-5.03273 -4.236767,-7.44428 C 22.653975,10.336912 20.986724,8.1900245 19.153162,6.1904598 17.352085,4.2386815 15.553283,2.2274698 13.313456,0.76457534 13.066438,0.66394107 12.835973,0.50360357 12.572403,0.46267253 12.456759,0.44470732 11.195556,0.68143267 11.161126,0.68846794 10.12189,0.90083311 9.0978099,1.1845352 8.0996931,1.5442363 5.2685668,3.1333925 2.3100145,4.5252622 -0.35637163,6.3775757 -1.6411645,7.2701106 -2.789599,8.336638 -3.9935087,9.3308337 -4.8648663,10.069976 -5.7253654,10.82973 -6.6574554,11.493183 -6.9490421,11.700733 -7.8645427,12.261237 -7.551247,12.088192 -5.9825245,11.221726 0.46811765,7.5203614 -2.8844442,9.4187627 -3.1295568,9.5463368 -3.3696953,9.6839625 -3.6197848,9.8014851 -3.8356847,9.9029422 -4.744293,10.127923 -4.2569199,10.620548 -4.146504,10.732154 -4.117757,9.9967503 -4.0003006,10.22561 -3.6813877,9.6453201 -3.3389004,9.0760162 -2.9878724,8.5153694 -2.3618709,7.632849 -1.8007876,6.7060851 -1.1421682,5.8459855 -0.35854915,4.6372868 0.3362652,3.3928906 0.46902518,1.9257734 0.5811847,0.25859676 0.43724343,-1.4084026 0.23445882,-3.0645937 0.01527535,-4.6857407 -0.2665694,-6.330187 -0.93799987,-7.8330388 -1.2983729,-8.4141723 -1.3301653,-8.5150632 -1.7925088,-9.0474578 c -0.9402021,-1.0826592 -2.1554651,-1.8795892 -3.2392805,-2.8047502 -2.0514098,-1.524055 -4.089556,-3.072109 -6.2576017,-4.429447 -1.933774,-1.155624 -3.966044,-2.135151 -6.116074,-2.82402 -2.047317,-0.54619 -4.123878,-1.003678 -6.249302,-1.087297 -1.598991,-0.01172 -3.197927,-0.01135 -4.794965,0.08505 -0.964025,0.0556 -1.92996,0.09682 -2.881778,0.27346 -3.298995,0.61223 -6.124567,3.072926 -8.864054,4.63455 -0.216524,0.165849 -0.442215,0.320374 -0.649573,0.497552 -1.346209,1.150284 -2.3519,2.656885 -3.498993,3.988615 -1.800268,2.3718172 -3.419444,4.8606388 -4.709881,7.551483 -1.186651,2.43986844 -2.249121,4.9376488 -3.064212,7.5286367 -0.672914,2.0114921 -1.351501,4.0219285 -1.928048,6.0637953 -0.55243,1.786572 -1.06282,3.587125 -1.740546,5.331997 0,0 7.046062,-3.398179 7.046062,-3.398179 z" />
    <path
       style="fill:#ffffff;fill-opacity:1;stroke-width:0.0132292"
       id="path3260"
       d="m -41.611676,-32.33676 c 3.667404,-0.194842 7.343011,-0.215836 11.013702,-0.122015 3.268054,0.0533 6.29489,1.022114 9.335238,2.116778 3.521885,1.294561 6.810513,3.097419 9.970114,5.102148 2.7093704,1.766274 5.2745243,3.741359 7.7402399,5.831139 2.4283193,2.153282 4.7875427,4.388545 7.0910554,6.674908 2.1209609,2.2128 4.2617707,4.4062278 6.3991675,6.6031003 2.6647162,2.7879992 5.3432262,5.56221362 8.0613302,8.2982963 2.160058,2.2599967 4.307618,4.5319658 6.460321,6.7990084 1.856102,1.919647 3.539505,3.996275 5.055047,6.192819 1.44686,1.966074 2.55098,4.144367 3.597415,6.340679 1.097738,2.450097 2.263156,4.8715 3.281227,7.356242 0.691103,1.609812 1.188985,3.2674 1.417897,5.002569 0.119774,1.27404 0.247245,2.545877 0.306777,3.824526 0.02532,0.796044 0.03149,1.592257 0.0227,2.388587 0,0 6.922026,-3.533302 6.922026,-3.533302 v 0 c -0.02058,-0.799401 -0.03134,-1.599665 -0.09226,-2.397318 C 44.88003,32.854014 44.72127,31.574198 44.563398,30.293588 44.270822,28.474163 43.696853,26.864255 42.910964,25.19638 41.816065,22.739139 40.585695,20.342173 39.55681,17.854214 38.52875,15.595471 37.472025,13.343356 35.922916,11.382495 34.344071,9.1823125 32.656754,7.0663708 30.774733,5.1148148 28.582364,2.8506403 26.345793,0.63260117 24.077584,-1.5556723 c -2.713395,-2.7160458 -5.32139,-5.5338821 -7.894283,-8.3830503 -2.104588,-2.2395574 -4.2756,-4.4116574 -6.4157275,-6.6170254 -2.3288942,-2.293668 -4.680331,-4.573587 -7.1801354,-6.681605 -2.46440854,-2.125821 -4.9641178,-4.235738 -7.7200574,-5.979131 -3.2597698,-1.938506 -6.6646187,-3.624863 -10.1325177,-5.158054 -3.055646,-1.228394 -6.160884,-2.336099 -9.505148,-2.30339 -3.53713,-0.02923 -7.078903,0.04379 -10.611216,-0.185314 0,0 -6.230169,4.526482 -6.230169,4.526482 z" />
    <path
       style="fill:#ffffff;fill-opacity:1;stroke-width:0.0132292"
       id="path3262"
       d="m -38.674129,-34.698082 c 3.206892,-0.491784 6.451278,-0.618394 9.686185,-0.791406 3.030257,-0.191602 6.064072,-0.313227 9.09888,-0.401708 3.652229,-0.127185 7.307757,0.05535 10.9456351,0.375464 2.1380132,0.181704 4.2633873,0.451451 6.3531194,0.941439 2.41928643,0.56307 4.7771843,1.335368 7.1149606,2.167432 1.4797431,0.513784 2.937375,1.084958 4.3990338,1.646933 0,0 6.3528941,-4.306261 6.3528941,-4.306261 v 0 c -1.547021,-0.456214 -3.065015,-1.003907 -4.601231,-1.494689 -2.3323494,-0.836334 -4.6698505,-1.668581 -7.0717433,-2.285381 -2.1443156,-0.570546 -4.33122907,-0.877422 -6.5505091,-0.960177 -3.7017245,-0.214629 -7.4110006,-0.326415 -11.1189606,-0.32677 -3.017613,-0.01412 -6.034688,0.0076 -9.040823,0.310524 -3.095601,0.246725 -6.200709,0.433962 -9.305449,0.494966 0,0 -6.261992,4.629634 -6.261992,4.629634 z" />
    <path
       style="fill:#ffffff;fill-opacity:1;stroke-width:0.0132292"
       id="path3264"
       d="m -2.3186671,-50.516211 c 0.356616,1.680834 0.6498352,3.374671 0.9954842,5.058068 0.3280542,1.921918 0.77993078,3.818617 1.24021846,5.712149 0.49315422,1.978943 0.92764503,3.973048 1.32510474,5.973374 0.1635866,0.715516 0.3028897,1.4359 0.4339193,2.157921 0,0 6.7787546,-3.639671 6.7787546,-3.639671 v 0 c -0.1794113,-0.700162 -0.366313,-1.3984 -0.535096,-2.101251 -0.4625208,-1.987986 -0.9131988,-3.978642 -1.3675889,-5.968506 -0.4390707,-1.890776 -0.8568055,-3.786543 -1.2221474,-5.693131 -0.3383545,-1.695344 -0.6976084,-3.408269 -0.7105174,-5.143485 0,0 -6.9381316,3.644532 -6.9381316,3.644532 z" />
    <path
       style="fill:#ffffff;fill-opacity:1;stroke-width:0.0132292"
       id="path3268"
       d="m -1.0048019,-48.171504 c 1.73976243,-0.09158 3.4825808,-0.104117 5.2237163,-0.16598 1.396246,-0.07571 2.7964315,-0.02366 4.1916085,0.0511 1.6310161,0.07219 3.1964441,0.452118 4.7162691,1.027306 2.16217,0.933003 4.20202,2.118891 6.253496,3.268502 2.402771,1.32474 4.50759,3.077833 6.540251,4.901087 1.301322,1.220572 2.51659,2.524546 3.633962,3.91451 0.99817,1.349329 1.902855,2.766491 2.721915,4.230775 1.077695,2.079333 2.29971,4.076567 3.486613,6.093703 1.493176,2.410743 2.81923,4.916366 4.139239,7.424139 1.264367,2.502527 2.558738,4.993209 3.727064,7.5424879 0.980075,2.0760372 1.767324,4.2322167 2.491025,6.4083061 0.7429,2.1809472 1.271215,4.42140444 1.682128,6.6861372 0.385157,2.2717998 0.448408,4.5765084 0.501423,6.8744728 0.04743,2.360898 0.04613,4.722331 0.02122,7.083459 -0.01633,1.492819 -0.07432,2.984522 -0.126455,4.476351 0,0 6.912435,-3.521051 6.912435,-3.521051 v 0 c -0.04912,-1.451192 -0.101635,-2.902339 -0.112004,-4.354505 -0.01754,-2.368119 0.0016,-4.7362611 -0.02223,-7.1043136 C 54.919862,4.3367387 54.790391,2.003844 54.377789,-0.29235834 53.945528,-2.5946222 53.459613,-4.8894196 52.720955,-7.1162085 51.960137,-9.302442 51.078813,-11.443471 50.073219,-13.52919 c -1.203531,-2.544715 -2.48321,-5.053483 -3.786489,-7.548353 -1.314707,-2.522133 -2.629532,-5.046266 -4.088569,-7.4891 -1.153464,-2.027246 -2.344185,-4.033459 -3.373258,-6.128745 -0.782248,-1.540096 -1.675265,-3.017282 -2.746922,-4.376454 -1.139304,-1.444654 -2.398546,-2.777446 -3.802968,-3.970492 -2.123919,-1.810246 -4.325056,-3.529828 -6.737556,-4.946238 -2.011423,-1.199631 -3.969951,-2.502139 -6.093989,-3.498745 -1.562325,-0.671874 -3.121528,-1.11004 -4.825333,-1.241208 -1.4116,-0.127816 -2.84221,-0.217315 -4.257416,-0.123626 -1.6724497,0.125315 -3.349617,0.234674 -5.0245327,0.07366 0,0 -6.3409829,4.606992 -6.3409829,4.606992 z" />
  </g>
</svg>
